<svg width="20" height="16" viewBox="0 0 20 16" fill="none" xmlns="http://www.w3.org/2000/svg">
<path d="M1 4.25194C1 3.11365 1 2.54451 1.22298 2.10975C1.4191 1.72731 1.73206 1.41638 2.117 1.22153C2.55461 1 3.12748 1 4.2732 1H7.82719C8.32756 1 8.57776 1 8.81322 1.05616C9.02189 1.10594 9.22146 1.18806 9.40455 1.2995C9.61097 1.42519 9.78792 1.60095 10.1417 1.95247L10.27 2.07999C10.6238 2.43152 10.8008 2.60727 11.0072 2.73296C11.1903 2.8444 11.3898 2.92652 11.5985 2.97631C11.834 3.03246 12.0842 3.03246 12.5846 3.03246H16.1385C17.2843 3.03246 17.8572 3.03246 18.2948 3.25399C18.6797 3.44885 18.9927 3.75977 19.1887 4.14221C19.4117 4.57697 19.4117 5.14613 19.4117 6.28441V11.9753C19.4117 13.1136 19.4117 13.6828 19.1887 14.1175C18.9927 14.4999 18.6797 14.8109 18.2948 15.0057C17.8572 15.2273 17.2843 15.2272 16.1385 15.2272H4.2732C3.12747 15.2272 2.55461 15.2273 2.117 15.0057C1.73206 14.8109 1.4191 14.4999 1.22298 14.1175C1 13.6828 1 13.1136 1 11.9753V4.25194Z" stroke="#073D88" stroke-linecap="round" stroke-linejoin="round"/>
<path d="M9.45778 10.9746V5.87134H10.1534V10.9746H9.45778ZM7.40405 8.78404V8.07392H12.2071V8.78404H7.40405Z" fill="#002E6D"/>
</svg>
