<svg width="15" height="18" viewBox="0 0 15 18" fill="none" xmlns="http://www.w3.org/2000/svg">
<path d="M13.2752 0H6.26628C5.76337 0 5.28065 0.189492 4.92485 0.526254L0.552912 4.66833C0.196885 5.00538 -0.00283813 5.46272 -0.00283813 5.93944V16.3633C-0.00283813 17.2657 0.772452 18 1.72512 18H13.2752C14.2275 18 15.0028 17.2657 15.0028 16.3633V1.63624C15.0029 0.733993 14.2275 0 13.2752 0ZM5.65375 1.13727V4.81645C5.65375 5.21417 5.49039 5.36917 5.07058 5.36917H1.187L5.65375 1.13727ZM14.0312 16.3633C14.0312 16.7583 13.6919 17.0795 13.2752 17.0795H1.72512C1.30783 17.0795 0.968835 16.7583 0.968835 16.3633V6.18744H5.59081C6.10181 6.18744 6.51773 5.79344 6.51773 5.30906V0.920532H13.2752C13.6919 0.920532 14.0312 1.2414 14.0312 1.63624V16.3633Z" fill="#073D88"/>
<path d="M7.56552 13.2632V7.57898H8.43449V13.2632H7.56552ZM5 10.8233V10.0323H11V10.8233H5Z" fill="#002E6D"/>
</svg>
