<svg width="20" height="20" viewBox="0 0 20 20" fill="none" xmlns="http://www.w3.org/2000/svg">
<path d="M13.3749 11.6875V6.625M13.3749 6.625H8.31236M13.3749 6.625L6.62501 13.3749M4.60001 19H15.4C16.6601 19 17.2902 19 17.7715 18.7547C18.1948 18.5391 18.5391 18.1948 18.7549 17.7715C19 17.2902 19 16.6601 19 15.4V4.6C19 3.33989 19 2.70982 18.7549 2.22852C18.5391 1.80515 18.1948 1.46095 17.7715 1.24524C17.2902 1 16.6601 1 15.4 1H4.60001C3.33989 1 2.70984 1 2.22853 1.24524C1.80516 1.46095 1.46096 1.80515 1.24524 2.22852C1 2.70982 1 3.33988 1 4.6V15.4C1 16.6601 1 17.2902 1.24524 17.7715C1.46096 18.1948 1.80516 18.5391 2.22853 18.7547C2.70984 19 3.33989 19 4.60001 19Z" stroke="#002E6D" stroke-opacity="0.8" stroke-linecap="round" stroke-linejoin="round"/>
</svg>
