<svg width="26" height="19" viewBox="0 0 26 19" fill="none" xmlns="http://www.w3.org/2000/svg">
<path d="M10.9321 2.13643C11.4353 1.66447 11.4548 0.880131 10.9755 0.384562C10.4963 -0.111006 9.70002 -0.130138 9.19689 0.341838L10.9321 2.13643ZM0.390439 8.6027C-0.112703 9.07472 -0.132127 9.85901 0.347061 10.3545C0.826233 10.8501 1.62255 10.8693 2.1257 10.3973L0.390439 8.6027ZM2.1257 8.6027C1.62255 8.13067 0.826233 8.14984 0.347061 8.64549C-0.132127 9.14097 -0.112703 9.92526 0.390439 10.3973L2.1257 8.6027ZM9.19689 18.6581C9.70002 19.1302 10.4963 19.111 10.9755 18.6154C11.4548 18.1199 11.4353 17.3356 10.9321 16.8636L9.19689 18.6581ZM1.25807 8.26086C0.563264 8.26086 3.0727e-06 8.81566 3.0727e-06 9.49999C3.0727e-06 10.1843 0.563264 10.7391 1.25807 10.7391V8.26086ZM24.7419 10.7391C25.4367 10.7391 26 10.1843 26 9.49999C26 8.81566 25.4367 8.26086 24.7419 8.26086V10.7391ZM9.19689 0.341838L0.390439 8.6027L2.1257 10.3973L10.9321 2.13643L9.19689 0.341838ZM0.390439 10.3973L9.19689 18.6581L10.9321 16.8636L2.1257 8.6027L0.390439 10.3973ZM1.25807 10.7391H24.7419V8.26086H1.25807V10.7391Z" fill="#33588A"/>
</svg>
