<svg width="13" height="13" viewBox="0 0 13 13" fill="none" xmlns="http://www.w3.org/2000/svg">
<path fill-rule="evenodd" clip-rule="evenodd" d="M0.627052 6.10049C0.324239 6.39853 0.153177 6.8052 0.151317 7.22993C0.149724 7.65467 0.317864 8.06267 0.618286 8.36309C1.4226 9.1674 2.49652 10.2413 3.29605 11.0411C3.91416 11.659 4.9145 11.6651 5.54005 11.0547C7.10989 9.52254 9.85247 6.84557 10.6756 6.04206C10.8292 5.89224 10.916 5.68665 10.916 5.47202C10.916 4.34896 10.916 0.795166 10.916 0.795166H6.34197C6.13266 0.795166 5.93185 0.877244 5.78283 1.02413C4.96869 1.82579 2.21097 4.54074 0.627052 6.10049ZM9.85354 1.85767V5.03056C9.85354 5.24598 9.76614 5.4521 9.61182 5.60218C8.79661 6.39401 6.13399 8.9804 4.96736 10.1136C4.65897 10.4129 4.1673 10.4095 3.86316 10.1053C3.22911 9.47154 2.19079 8.43295 1.54983 7.79199C1.40055 7.64271 1.31715 7.44004 1.31821 7.22887C1.319 7.0177 1.40427 6.81582 1.55515 6.66787C2.7385 5.50629 5.41866 2.87528 6.22297 2.08584C6.37199 1.93948 6.57254 1.85767 6.78132 1.85767C7.63185 1.85767 9.85354 1.85767 9.85354 1.85767ZM7.75324 2.51163C7.28813 2.51562 6.83683 2.78178 6.62008 3.18978C6.43202 3.54332 6.42086 3.9832 6.58874 4.34684C6.8108 4.82815 7.34604 5.14929 7.88552 5.09298C8.42793 5.03667 8.92119 4.60556 9.02877 4.0581C9.10739 3.65887 8.98574 3.2251 8.70657 2.92893C8.46777 2.67579 8.1275 2.51774 7.77821 2.5119C7.76997 2.51163 7.76174 2.51163 7.75324 2.51163ZM7.75536 3.18074C8.04888 3.1826 8.32433 3.40626 8.37772 3.70163C8.39605 3.80363 8.38914 3.91042 8.35382 4.00817C8.24943 4.29478 7.9235 4.48921 7.61963 4.41617C7.31708 4.34339 7.08918 4.02065 7.14097 3.70695C7.18799 3.42299 7.44538 3.18553 7.74394 3.18074C7.74766 3.18074 7.75165 3.18074 7.75536 3.18074Z" fill="#002E6D" fill-opacity="0.8"/>
<path fill-rule="evenodd" clip-rule="evenodd" d="M10.916 1.4895V2.55227H11.8091V5.72516C11.8091 5.94058 11.7219 6.1467 11.5676 6.29678C10.7524 7.08861 8.08978 9.67473 6.92316 10.8079C6.61477 11.1075 6.12283 11.1038 5.81896 10.7999L5.80992 10.7909L5.54005 11.0547C5.36394 11.2263 5.15835 11.3492 4.94 11.4236L5.25185 11.7355C5.86996 12.3536 6.8703 12.3597 7.49558 11.749C9.06542 10.2169 11.808 7.54017 12.6314 6.73666C12.785 6.58658 12.8716 6.38099 12.8716 6.16636C12.8716 5.04356 12.8716 1.4895 12.8716 1.4895H10.916Z" fill="#002E6D" fill-opacity="0.8"/>
</svg>
