<svg width="12" height="13" viewBox="0 0 12 13" fill="none" xmlns="http://www.w3.org/2000/svg">
<path d="M2.60004 5.79898C2.60004 4.20452 2.60004 3.4073 3.0921 2.91196C3.58416 2.41663 4.37612 2.41663 5.96004 2.41663H7.64004C9.22394 2.41663 10.0159 2.41663 10.508 2.91196C11 3.4073 11 4.20452 11 5.79898V8.61761C11 10.2121 11 11.0093 10.508 11.5046C10.0159 12 9.22394 12 7.64004 12H5.96004C4.37612 12 3.58416 12 3.0921 11.5046C2.60004 11.0093 2.60004 10.2121 2.60004 8.61761V5.79898Z" stroke="#073D88"/>
<path d="M2.6 10.3333C1.71635 10.3333 1 9.5762 1 8.64216V5.25981C1 3.13386 1 2.07089 1.62484 1.41044C2.24968 0.75 3.25534 0.75 5.26667 0.75H7.4C8.28368 0.75 9 1.50717 9 2.44118" stroke="#073D88"/>
</svg>
