<?xml version="1.0" encoding="iso-8859-1"?>
<!-- Uploaded to: SVG Repo, www.svgrepo.com, Generator: SVG Repo Mixer Tools -->
<svg height="800px" width="800px" version="1.1" id="Layer_1" xmlns="http://www.w3.org/2000/svg" xmlns:xlink="http://www.w3.org/1999/xlink" 
	 viewBox="0 0 512 512" xml:space="preserve">
<circle style="fill:#273B7A;" cx="256" cy="256" r="256"/>
<path style="fill:#121149;" d="M154.721,355.837L305.99,507.106c101.283-20.051,181.067-99.837,201.118-201.119L357.136,156.015
	L154.721,355.837z"/>
<circle style="fill:#FFC61B;" cx="256" cy="256" r="142.222"/>
<path style="fill:#EAA22F;" d="M398.222,256c0-78.546-63.674-142.222-142.222-142.222v284.444
	C334.548,398.222,398.222,334.546,398.222,256z"/>
<path style="fill:#C92F00;" d="M198.856,344.35c-9.89,0-17.061-9.376-14.541-18.939c8.37-31.765,37.293-55.189,71.687-55.189
	s63.317,23.424,71.687,55.189c2.52,9.564-4.653,18.939-14.541,18.939H198.856z"/>
<path style="fill:#930000;" d="M327.687,325.411c-8.37-31.765-37.292-55.189-71.685-55.189v74.128h57.144
	C323.034,344.35,330.206,334.974,327.687,325.411z"/>
<g>
	<path style="fill:#272525;" d="M219.798,228.848c-4.284,0-7.758-3.474-7.758-7.758c0-8.556-6.959-15.515-15.515-15.515
		s-15.515,6.959-15.515,15.515c0,4.284-3.474,7.758-7.758,7.758s-7.758-3.474-7.758-7.758c0-17.11,13.921-31.03,31.03-31.03
		s31.03,13.921,31.03,31.03C227.556,225.375,224.084,228.848,219.798,228.848z"/>
	<path style="fill:#272525;" d="M338.747,228.848c-4.284,0-7.758-3.474-7.758-7.758c0-8.556-6.959-15.515-15.515-15.515
		c-8.556,0-15.515,6.959-15.515,15.515c0,4.284-3.474,7.758-7.758,7.758s-7.758-3.474-7.758-7.758c0-17.11,13.921-31.03,31.03-31.03
		s31.03,13.921,31.03,31.03C346.505,225.375,343.033,228.848,338.747,228.848z"/>
</g>
<path style="fill:#02B2B2;" d="M166.078,297.953c-6.035,12.943-21.421,18.542-34.364,12.507
	c-12.943-6.035-18.542-21.421-12.507-34.364c6.035-12.943,51.253-48.726,51.253-48.726S172.115,285.01,166.078,297.953z"/>
<path style="fill:#386895;" d="M345.922,297.953c6.035,12.943,21.421,18.542,34.364,12.507
	c12.943-6.035,18.542-21.421,12.507-34.364c-6.035-12.943-51.253-48.726-51.253-48.726S339.887,285.01,345.922,297.953z"/>
</svg>