<svg width="26" height="20" viewBox="0 0 26 20" fill="none" xmlns="http://www.w3.org/2000/svg">
<path d="M25 3.25H22.3333M25 10H18.3333M25 16.75H18.3333M6.33333 19V11.7564C6.33333 11.5224 6.33333 11.4054 6.30611 11.2934C6.28196 11.1942 6.24201 11.0981 6.18736 11.0078C6.12575 10.9061 6.03912 10.8147 5.86585 10.6319L1.46748 5.99304C1.29421 5.81031 1.20759 5.71894 1.14597 5.61719C1.09132 5.52692 1.05137 5.43083 1.02723 5.33154C1 5.21963 1 5.10262 1 4.86859V2.8C1 2.16994 1 1.85491 1.14532 1.61426C1.27316 1.40258 1.47713 1.23048 1.72801 1.12261C2.01323 1 2.3866 1 3.13333 1H14.8667C15.6135 1 15.9868 1 16.272 1.12261C16.5229 1.23048 16.7268 1.40258 16.8547 1.61426C17 1.85491 17 2.16994 17 2.8V4.86859C17 5.10262 17 5.21963 16.9728 5.33154C16.9487 5.43083 16.9087 5.52692 16.854 5.61719C16.7924 5.71894 16.7057 5.81031 16.5325 5.99304L12.1341 10.6319C11.9609 10.8147 11.8743 10.9061 11.8127 11.0078C11.758 11.0981 11.718 11.1942 11.6939 11.2934C11.6667 11.4054 11.6667 11.5224 11.6667 11.7564V15.625L6.33333 19Z" stroke="#002E6D" stroke-linecap="round" stroke-linejoin="round"/>
</svg>
