<svg width="13" height="13" viewBox="0 0 13 13" fill="none" xmlns="http://www.w3.org/2000/svg">
<path d="M2.50067 8.7753C1.65062 7.92527 1.2256 7.50023 1.06745 6.9488C0.909301 6.39737 1.04446 5.81168 1.31477 4.64031L1.47066 3.96481C1.69807 2.97935 1.81178 2.48661 2.14919 2.14919C2.48661 1.81178 2.97935 1.69807 3.96481 1.47066L4.64031 1.31477C5.81168 1.04446 6.39737 0.909301 6.9488 1.06745C7.50023 1.2256 7.92527 1.65062 8.7753 2.50067L9.78158 3.50697C11.2605 4.98591 12 5.72538 12 6.64427C12 7.56315 11.2605 8.30263 9.78158 9.78158C8.30263 11.2605 7.56315 12 6.64427 12C5.72538 12 4.98591 11.2605 3.50697 9.78158L2.50067 8.7753Z" stroke="#002E6D" stroke-opacity="0.8"/>
<path d="M5.54552 5.69946C5.98811 5.25686 5.98811 4.53928 5.54552 4.09668C5.10293 3.65409 4.38534 3.65409 3.94274 4.09668C3.50015 4.53928 3.50015 5.25686 3.94275 5.69946C4.38534 6.14205 5.10293 6.14205 5.54552 5.69946Z" stroke="#002E6D" stroke-opacity="0.8"/>
<path d="M6 10L10 6" stroke="#002E6D" stroke-opacity="0.8" stroke-linecap="round"/>
</svg>
