<svg width="13" height="13" viewBox="0 0 13 13" fill="none" xmlns="http://www.w3.org/2000/svg">
<path d="M6.50002 1.62504C5.29887 1.62924 4.14155 2.07674 3.25002 2.88171V1.62504C3.25002 1.48138 3.19295 1.34361 3.09137 1.24202C2.98979 1.14044 2.85202 1.08337 2.70836 1.08337C2.5647 1.08337 2.42692 1.14044 2.32534 1.24202C2.22376 1.34361 2.16669 1.48138 2.16669 1.62504V4.33337C2.16625 4.46983 2.21733 4.60143 2.30972 4.70185C2.40211 4.80227 2.529 4.86412 2.66502 4.87504H5.41669C5.56035 4.87504 5.69812 4.81797 5.79971 4.71639C5.90129 4.61481 5.95836 4.47703 5.95836 4.33337C5.95836 4.18971 5.90129 4.05194 5.79971 3.95036C5.69812 3.84878 5.56035 3.79171 5.41669 3.79171H3.85127C4.38481 3.27082 5.06008 2.91881 5.79263 2.7797C6.52518 2.64059 7.28249 2.72056 7.96983 3.0096C8.65717 3.29864 9.24403 3.78392 9.65701 4.40475C10.07 5.02558 10.2908 5.7544 10.2917 6.50004C10.2917 6.6437 10.3488 6.78147 10.4503 6.88306C10.5519 6.98464 10.6897 7.04171 10.8334 7.04171C10.977 7.04171 11.1148 6.98464 11.2164 6.88306C11.318 6.78147 11.375 6.6437 11.375 6.50004C11.375 5.20711 10.8614 3.96713 9.94717 3.05289C9.03293 2.13866 7.79295 1.62504 6.50002 1.62504Z" fill="#002E6D" fill-opacity="0.8"/>
<path d="M10.335 8.12504H7.58333C7.43967 8.12504 7.3019 8.18211 7.20032 8.28369C7.09873 8.38527 7.04167 8.52305 7.04167 8.66671C7.04167 8.81037 7.09873 8.94814 7.20032 9.04972C7.3019 9.15131 7.43967 9.20837 7.58333 9.20837H9.14875C8.61521 9.72926 7.93994 10.0813 7.20739 10.2204C6.47484 10.3595 5.71753 10.2795 5.03019 9.99048C4.34285 9.70144 3.75599 9.21616 3.34301 8.59533C2.93003 7.9745 2.70927 7.24568 2.70833 6.50004C2.70833 6.35638 2.65126 6.21861 2.54968 6.11702C2.4481 6.01544 2.31033 5.95837 2.16667 5.95837C2.02301 5.95837 1.88523 6.01544 1.78365 6.11702C1.68207 6.21861 1.625 6.35638 1.625 6.50004C1.62794 7.43982 1.90246 8.35872 2.4155 9.14612C2.92854 9.93351 3.65824 10.5558 4.51675 10.9381C5.37525 11.3205 6.32596 11.4465 7.25443 11.3011C8.18289 11.1556 9.04953 10.7449 9.75 10.1184V11.375C9.75 11.5187 9.80707 11.6565 9.90865 11.7581C10.0102 11.8596 10.148 11.9167 10.2917 11.9167C10.4353 11.9167 10.5731 11.8596 10.6747 11.7581C10.7763 11.6565 10.8333 11.5187 10.8333 11.375V8.66671C10.8338 8.53025 10.7827 8.39866 10.6903 8.29823C10.5979 8.19781 10.471 8.13596 10.335 8.12504Z" fill="#002E6D" fill-opacity="0.8"/>
</svg>
