<svg width="26" height="20" viewBox="0 0 26 20" fill="none" xmlns="http://www.w3.org/2000/svg">
<path d="M11.6667 1.25V18.75M5 5H7.66667M5 8.75H7.66667M5 12.5H7.66667M5.26667 18.75H20.7333C22.2268 18.75 22.9736 18.75 23.544 18.4775C24.0457 18.2379 24.4537 17.8554 24.7093 17.385C25 16.8503 25 16.1501 25 14.75V5.25C25 3.84987 25 3.1498 24.7093 2.61503C24.4537 2.14461 24.0457 1.76216 23.544 1.52249C22.9736 1.25 22.2268 1.25 20.7333 1.25H5.26667C3.7732 1.25 3.02645 1.25 2.45603 1.52249C1.95425 1.76216 1.54631 2.14461 1.29065 2.61503C1 3.1498 1 3.84986 1 5.25V14.75C1 16.1501 1 16.8503 1.29065 17.385C1.54631 17.8554 1.95425 18.2379 2.45603 18.4775C3.02645 18.75 3.77319 18.75 5.26667 18.75Z" stroke="#002E6D" stroke-opacity="0.8" stroke-width="2" stroke-linecap="round" stroke-linejoin="round"/>
</svg>
