<svg width="26" height="22" viewBox="0 0 26 22" fill="none" xmlns="http://www.w3.org/2000/svg">
<path d="M1 5.57143C1 3.97127 1 3.1712 1.29065 2.56003C1.54631 2.02241 1.95425 1.58533 2.45603 1.31141C3.02645 1 3.7732 1 5.26667 1H9.89936C10.5516 1 10.8777 1 11.1847 1.07894C11.4567 1.14893 11.7168 1.26437 11.9555 1.42103C12.2245 1.59771 12.4552 1.84479 12.9164 2.33894L13.0836 2.5182C13.5448 3.01236 13.7755 3.25943 14.0445 3.43611C14.2832 3.59277 14.5433 3.70821 14.8153 3.7782C15.1223 3.85714 15.4484 3.85714 16.1007 3.85714H20.7333C22.2268 3.85714 22.9736 3.85714 23.544 4.16856C24.0457 4.44247 24.4537 4.87956 24.7093 5.41717C25 6.02834 25 6.82843 25 8.42857V16.4286C25 18.0287 25 18.8289 24.7093 19.44C24.4537 19.9776 24.0457 20.4147 23.544 20.6886C22.9736 21 22.2268 21 20.7333 21H5.26667C3.77319 21 3.02645 21 2.45603 20.6886C1.95425 20.4147 1.54631 19.9776 1.29065 19.44C1 18.8289 1 18.0287 1 16.4286V5.57143Z" stroke="#073D88" stroke-linecap="round" stroke-linejoin="round"/>
</svg>
