<svg width="23" height="22" viewBox="0 0 23 22" fill="none" xmlns="http://www.w3.org/2000/svg">
<path d="M18.491 0H10.0065C9.39774 0 8.8134 0.231602 8.38269 0.643199L3.09035 5.70573C2.65937 6.11768 2.4176 6.67666 2.4176 7.25931V19.9995C2.4176 21.1026 3.35611 22 4.50934 22H18.491C19.6438 22 20.5823 21.1026 20.5823 19.9995V1.99985C20.5824 0.897102 19.6438 0 18.491 0ZM9.26504 1.39V5.88676C9.26504 6.37287 9.0673 6.56232 8.5591 6.56232H3.85793L9.26504 1.39ZM19.4062 19.9995C19.4062 20.4824 18.9955 20.8749 18.491 20.8749H4.50934C4.0042 20.8749 3.59384 20.4824 3.59384 19.9995V7.56241H9.18886C9.80743 7.56241 10.3109 7.08086 10.3109 6.48884V1.12509H18.491C18.9955 1.12509 19.4062 1.51727 19.4062 1.99985V19.9995Z" fill="#073D88"/>
</svg>
